<?xml version="1.0" encoding="UTF-8"?>
<svg width="269px" height="396px" viewBox="0 0 269 396" version="1.1" xmlns="http://www.w3.org/2000/svg" xmlns:xlink="http://www.w3.org/1999/xlink">
    <title>Слой-1 Clipped</title>
    <defs>
        <rect id="path-1" x="0" y="0" width="595.35" height="841.995"></rect>
        <path d="M9.97407663,3.695 C9.97407663,3.695 4.61407663,11.153 3.23507663,14.047 C1.85507663,16.94 0.314076633,12.327 0.0350766335,8.834 C-0.243923367,5.342 1.23307663,1.13686838e-13 1.23307663,1.13686838e-13 L9.97407663,3.695 Z" id="path-3"></path>
        <path d="M12.5213741,2.052 C12.5213741,2.052 7.7083741,9.027 6.7753741,12.617 C5.8413741,16.207 3.6643741,19.505 0.8263741,10.261 C-2.0126259,1.017 3.3743741,0 3.3743741,0 L12.5213741,2.052 Z" id="path-5"></path>
        <path d="M13.3603626,1.32768556 C13.3603626,1.32768556 9.62836263,5.33568556 9.02836263,9.43568556 C8.42936263,13.5356856 8.89036263,20.5296856 5.53336263,18.8446856 C2.17736263,17.1606856 -1.66063737,5.79968556 0.761362632,1.89568556 C3.18236263,-2.00831444 13.3603626,1.32768556 13.3603626,1.32768556 Z" id="path-7"></path>
        <path d="M13.9429182,4.30332695 C13.9429182,4.30332695 10.3309182,9.39932695 9.04191815,12.928327 C8.07791815,15.565327 7.74791815,21.043327 5.84091815,21.234327 C3.93391815,21.426327 -1.98208185,15.679327 0.67491815,4.94332695 C3.33291815,-5.79267305 13.9429182,4.30332695 13.9429182,4.30332695 Z" id="path-9"></path>
        <path d="M4.80955752,6.47758569 C4.80955752,6.47758569 4.37755752,2.57458569 4.89855752,0.722585695 C5.42055752,-1.12841431 1.18755752,0.850585695 0.398557524,3.56658569 C-0.390442476,6.28358569 0.235557524,7.20858569 0.235557524,7.20858569 L4.80955752,6.47758569 Z" id="path-11"></path>
        <path d="M7.90094078,8.42997977 C7.90094078,8.42997977 6.33694078,5.78497977 6.23494078,3.21797977 C6.13194078,0.65097977 4.81694078,-1.39002023 2.84394078,1.19597977 C0.871940776,3.78197977 -0.0690592245,7.61997977 0.00394077551,9.52197977 C0.0759407755,11.4239798 7.90094078,8.42997977 7.90094078,8.42997977 Z" id="path-13"></path>
        <path d="M9.06113304,10.3911032 C9.06113304,10.3911032 6.16213304,6.32210321 6.01613304,3.63210321 C5.87013304,0.942103209 4.70613304,-0.735896791 3.29713304,0.319103209 C1.88713304,1.37310321 0.106133044,4.48210321 0.00813304448,8.14510321 C-0.0898669555,11.8071032 0.730133044,12.5191032 0.730133044,12.5191032 L9.06113304,10.3911032 Z" id="path-15"></path>
        <path d="M11.1826584,12.5361502 C11.1826584,12.5361502 6.58265842,7.26715015 6.71465842,4.38215015 C6.86165842,1.13815015 6.28965842,-1.08084985 4.05465842,0.547150153 C1.81965842,2.17515015 0.265658422,6.91915015 0.0636584219,9.13715015 C-0.195341578,11.9931502 0.419658422,12.5781502 0.419658422,12.5781502 L11.1826584,12.5361502 Z" id="path-17"></path>
        <path d="M10.9166957,15.5107047 C10.9166957,15.5107047 9.95169573,8.0437047 11.5706957,5.1987047 C13.1896957,2.3547047 13.0236957,-0.508295304 10.4616957,0.0767046961 C7.89869573,0.661704696 0.890695727,5.5997047 0.0436957269,9.5997047 C-0.802304273,13.5987047 10.9166957,15.5107047 10.9166957,15.5107047 Z" id="path-19"></path>
        <path d="M0,10.3442804 C0,10.3442804 2.751,3.89928041 6.309,1.52728041 C9.866,-0.845719594 12.335,-0.902719594 11.059,4.61628041 C9.523,11.2572804 10.729,19.4022804 10.729,19.4022804 L0,10.3442804 Z" id="path-21"></path>
        <path d="M6.58258872,0 C6.58258872,0 1.08058872,6.859 0.227588716,12.649 C-0.665411284,18.716 1.20758872,25.659 3.44158872,25.268 C5.25458872,24.951 10.9945887,11.101 14.1155887,10.374 C17.2355887,9.647 6.58258872,0 6.58258872,0 Z" id="path-23"></path>
        <path d="M15.2116005,6.48864579 C15.2116005,6.48864579 9.33060054,10.8986458 6.21960054,15.5246458 C3.22260054,19.9796458 2.43560054,21.3186458 0.635600537,19.1126458 C-1.16439946,16.9056458 1.09560054,3.88364579 4.44560054,0.686645793 C7.79560054,-2.50935421 15.2116005,6.48864579 15.2116005,6.48864579 Z" id="path-25"></path>
        <path d="M13.0870733,8.715 C13.0870733,8.715 6.78107335,19.482 5.54907335,21.567 C4.00507335,24.18 0.267073348,23.622 0.0110733477,14.182 C-0.255926652,4.317 4.39407335,0 4.39407335,0 L13.0870733,8.715 Z" id="path-27"></path>
        <path d="M33.7590569,12.6346631 C33.7590569,12.6346631 38.6520569,15.2996631 40.1790569,14.1706631 C41.7060569,13.0426631 40.9070569,7.33466309 36.3320569,6.83866309 C31.7570569,6.34366309 34.4170569,3.91966309 31.8780569,2.03766309 C29.3390569,0.155663086 27.1570569,2.01966309 25.1340569,1.86066309 C23.1110569,1.70166309 18.9960569,-1.20033691 17.0110569,0.570663086 C15.0260569,2.34166309 12.7280569,5.33666309 12.7280569,5.33666309 C12.7280569,5.33666309 1.86305695,6.49066309 0.169056946,8.01366309 C-1.52494305,9.53566309 10.0280569,13.1036631 11.7920569,12.7536631 C13.5570569,12.4036631 13.3830569,17.0316631 16.2370569,16.9846631 C19.0900569,16.9376631 20.0900569,14.5736631 22.5570569,16.3416631 C25.0230569,18.1096631 26.2760569,20.1346631 28.9850569,19.1536631 C31.6950569,18.1726631 33.7590569,12.6346631 33.7590569,12.6346631 Z" id="path-29"></path>
        <path d="M0.00965152372,5.81219814 C0.509651524,3.14919814 11.2826515,-1.23880186 14.6286515,0.330198141 C17.9736515,1.89919814 19.0526515,6.21719814 18.2016515,8.15019814 C17.3516515,10.0821981 12.1636515,7.89419814 10.4436515,6.56119814 C8.72465152,5.22719814 -0.336348476,7.65619814 0.00965152372,5.81219814 Z" id="path-31"></path>
        <path d="M8.14952683,11.5653788 C8.96952683,9.85837881 7.10852683,7.88837881 7.17852683,5.13337881 C7.24852683,2.37737881 10.7295268,-0.277621187 12.5275268,0.0233788125 C15.7455268,0.562378813 15.3145268,3.44437881 16.6355268,4.62637881 C17.9565268,5.80837881 23.8855268,7.57637881 22.9465268,9.86337881 C21.2745268,13.9323788 17.6935268,12.4943788 16.7475268,14.3533788 C16.3935268,15.0493788 16.0545268,18.6783788 16.1005268,20.6613788 C16.1775268,23.9713788 16.6465268,26.0843788 14.9095268,27.1493788 C12.1325268,28.8523788 7.85952683,25.9883788 7.85952683,25.9883788 C7.85952683,25.9883788 1.65652683,27.9153788 0.601526825,25.5913788 C-0.453473175,23.2663788 -0.364473175,21.7213788 2.87052683,17.9263788 C6.10552683,14.1313788 7.32952683,13.2723788 8.14952683,11.5653788 Z" id="path-33"></path>
        <path d="M5.45043532,6.67948756 C5.45043532,6.67948756 5.04043532,1.12648756 8.34443532,0.286487558 C11.6494353,-0.553512442 12.7064353,0.550487558 13.5154353,2.33848756 C14.3254353,4.12648756 17.1044353,8.46948756 17.1044353,8.46948756 C17.1044353,8.46948756 25.5994353,16.0844876 28.1524353,16.6694876 C30.7054353,17.2554876 34.5574353,19.0244876 34.3754353,21.5744876 C34.1924353,24.1254876 32.8114353,25.7384876 32.8114353,25.7384876 C32.8114353,25.7384876 34.5264353,28.7554876 33.5214353,30.6414876 C32.5154353,32.5274876 29.1564353,34.9034876 26.3714353,33.2954876 C23.5864353,31.6874876 21.7164353,25.0324876 21.4834353,22.6204876 C21.2494353,20.2094876 16.2814353,17.0804876 14.9414353,16.3094876 C13.6014353,15.5384876 9.97943532,15.3744876 7.69743532,15.9824876 C5.41543532,16.5904876 2.34343532,16.4814876 1.11543532,14.4304876 C-0.111564678,12.3784876 -0.419564678,10.8244876 0.663435322,8.88648756 C1.74743532,6.94948756 5.45043532,6.67948756 5.45043532,6.67948756 Z" id="path-35"></path>
        <path d="M13.6124143,10.585863 C13.1684143,12.465863 9.92241431,14.042863 8.33141431,12.967863 C6.73941431,11.892863 5.37641431,7.67786303 4.45741431,6.88986303 C3.53841431,6.10186303 0.427414315,4.88286303 0.0454143146,3.29886303 C-0.335585685,1.71486303 1.75841431,-0.500136973 3.41741431,0.100863027 C5.07641431,0.702863027 9.88641431,3.37786303 10.5114143,4.39686303 C11.1354143,5.41586303 14.1824143,8.17486303 13.6124143,10.585863 Z" id="path-37"></path>
        <path d="M13.7683346,1.72064703 C13.7683346,1.72064703 12.0843346,2.83764703 11.6543346,4.35364703 C11.2233346,5.86964703 12.4003346,7.47064703 11.4183346,8.06664703 C10.4353346,8.66164703 9.62333461,7.39764703 6.94933461,6.79564703 C4.27533461,6.19364703 0.440334614,5.36864703 0.0903346135,4.53664703 C-0.598665386,2.89964703 2.82233461,0.738647027 4.62833461,0.260647027 C8.63133461,-0.800352973 13.7683346,1.72064703 13.7683346,1.72064703 Z" id="path-39"></path>
        <path d="M14.4781703,9.38300208 C13.7181703,11.0030021 11.7711703,12.0880021 10.2241703,10.5680021 C8.67617031,9.04700208 6.31717031,7.79700208 4.93217031,7.72100208 C3.54817031,7.64400208 1.26817031,6.41400208 0.365170313,4.48000208 C-0.536829687,2.54500208 0.319170313,0.477002078 1.97917031,0.0630020783 C3.63817031,-0.349997922 7.33417031,1.37000208 8.91017031,2.23900208 C10.4851703,3.10700208 13.7861703,4.76900208 14.3681703,5.56700208 C15.1241703,6.60200208 15.1681703,7.91400208 14.4781703,9.38300208 Z" id="path-41"></path>
        <path d="M11.4418696,-1.13686838e-13 C11.4418696,-1.13686838e-13 6.64286957,0.524 3.28286957,3.2 C1.11886957,4.925 -0.562130433,7.684 0.176869567,8.85 C0.906869567,10 4.18386957,8.855 7.08486957,9.024 C9.98586957,9.192 11.9448696,11.131 13.5278696,8.887 C14.5348696,7.461 13.1708696,5.592 12.6218696,4.541 C12.0728696,3.49 11.4418696,-1.13686838e-13 11.4418696,-1.13686838e-13 Z" id="path-43"></path>
        <path d="M0.990220455,3.87393191 C-0.083779545,5.95793191 -0.652779545,8.68393191 1.24422045,8.76693191 C3.14022045,8.84993191 5.24322045,7.08693191 6.87422045,6.64993191 C8.50622045,6.21193191 10.5712205,6.00193191 11.5352205,4.99193191 C12.4982205,3.98093191 13.4222205,1.77693191 11.8982205,0.904931908 C10.3742205,0.0329319084 7.58922045,-0.326068092 5.79422045,0.357931908 C3.99922045,1.04193191 2.06422045,1.78893191 0.990220455,3.87393191 Z" id="path-45"></path>
        <path d="M11.1390832,1.13686838e-13 C11.1390832,1.13686838e-13 5.02708319,0.432 3.09008319,1.78 C1.38808319,2.964 -0.725916811,5.702 0.245083189,7.275 C1.21608319,8.848 4.29308319,7.379 6.76208319,7.363 C8.86308319,7.35 12.2020832,7.5 11.4800832,5.321 C11.1870832,4.438 10.5750832,3.805 10.4680832,2.851 C10.2820832,1.212 11.1390832,1.13686838e-13 11.1390832,1.13686838e-13 Z" id="path-47"></path>
        <path d="M94.0334747,4.74359299 C94.0334747,4.74359299 100.704475,-0.417407007 103.142475,1.05059299 C105.579475,2.51859299 107.492475,4.45559299 105.404475,6.51959299 C103.315475,8.58359299 97.2644747,9.10559299 97.2644747,9.10559299 C97.2644747,9.10559299 98.1664747,10.615593 98.6674747,13.392593 C99.1684747,16.170593 95.3404747,19.118593 93.3084747,19.283593 C91.2764747,19.448593 90.0534747,23.002593 87.8504747,24.454593 C85.6484747,25.905593 81.1844747,22.066593 81.1844747,22.066593 C81.1844747,22.066593 72.4334747,31.618593 67.4604747,34.360593 C62.4874747,37.102593 47.2554747,43.477593 38.6674747,45.296593 C29.7254747,47.191593 21.4574747,46.478593 13.9114747,43.438593 C6.36547466,40.398593 -1.86852534,35.201593 0.375474658,33.636593 C2.61947466,32.071593 17.5224747,37.494593 25.1684747,37.937593 C32.8144747,38.380593 39.7994747,36.527593 48.0474747,34.298593 C50.8494747,33.542593 57.6204747,30.493593 63.3624747,27.140593 C69.9024747,23.321593 77.2734747,17.572593 77.2734747,17.572593 C77.2734747,17.572593 72.1194747,12.751593 74.2344747,9.16859299 C76.3484747,5.58659299 81.6394747,7.38359299 81.6394747,7.38359299 C81.6394747,7.38359299 84.5174747,-0.125407007 87.5264747,0.00159299269 C91.9554747,0.187592993 94.0334747,4.74359299 94.0334747,4.74359299 Z" id="path-49"></path>
        <path d="M142.175,2.48692403 C139.751,1.15492403 136.898,0.198924035 133.62,0.0339240346 C125.126,-0.393075965 120.715,3.35192403 120.715,3.35192403 C120.715,3.35192403 113.628,2.80992403 97.848,2.31092403 C82.068,1.81192403 60.799,8.29992403 55.248,8.17292403 C49.696,8.04492403 46.474,5.11492403 32.46,8.09092403 C18.446,11.067924 0,29.398924 0,29.398924 C0,29.398924 5.105,44.295924 13.186,50.509924 C21.869,57.186924 41.38,68.760924 47.866,69.792924 C60.927,71.869924 81.44,67.201924 93.085,68.426924 C104.73,69.650924 119.063,74.396924 126.756,79.512924 C134.449,84.627924 152.152,87.594924 156.999,85.688924 C161.845,83.783924 165.306,78.799924 165.306,78.799924 C165.306,78.799924 171.58,78.531924 174.563,75.181924 C177.545,71.831924 177.889,63.541924 177.889,63.541924 C177.889,63.541924 186.106,52.546924 187.581,46.359924 C189.056,40.172924 180.922,32.067924 174.674,25.088924 C168.425,18.108924 152.939,13.930924 152.939,13.930924 C152.939,13.930924 149.447,6.48292403 142.175,2.48692403 Z M130.47,37.608924 C132.01,38.705924 133.296,40.364924 134.025,42.850924 C136.944,52.794924 106.789,58.695924 106.789,58.695924 C106.789,58.695924 97.638,33.718924 104.083,29.632924 C114.21,23.211924 119.063,36.136924 119.063,36.136924 C119.063,36.136924 125.85,34.317924 130.47,37.608924 Z M84.435,20.643924 C87.04,22.848924 86.544,26.108924 86.006,30.089924 C85.474,34.018924 78.561,44.423924 73.958,46.217924 C69.354,48.011924 69.465,44.144924 63.175,45.706924 C56.886,47.267924 52.069,50.488924 48.011,47.261924 C43.953,44.034924 51.353,32.416924 58.608,27.305924 C66.994,21.396924 74.487,17.029924 80.681,18.820924 C82.348,19.302924 83.567,19.909924 84.435,20.643924 Z M36.659,16.019924 C37.673,16.547924 38.491,17.226924 39.185,17.941924 C43.452,22.338924 33.628,30.799924 31.959,32.121924 C28.216,35.086924 15.31,34.870924 13.073,31.435924 C10.837,28.001924 11.95,25.032924 21.659,18.877924 C28.941,14.260924 33.616,14.435924 36.659,16.019924 Z" id="path-51"></path>
        <path d="M2.7864863,0 C2.7864863,0 20.3124863,16.091 32.9464863,19.467 C45.5804863,22.843 81.6874863,17.278 88.6404863,17.412 C98.8784863,17.609 106.416486,19.906 110.758486,21.668 C115.100486,23.43 124.859486,28.568 127.704486,33.636 C131.579486,40.537 131.981486,47.505 121.929486,50.487 C111.877486,53.47 101.654486,48.17 95.1724863,51.389 C88.6894863,54.608 87.3694863,57.198 75.9784863,55.803 C64.2364863,54.365 59.1864863,41.889 50.3804863,39.513 C41.5754863,37.136 31.8664863,37.38 19.5534863,31.998 C7.2414863,26.617 3.1254863,23.572 1.1304863,17.986 C-2.1625137,8.765 2.7864863,0 2.7864863,0 Z" id="path-53"></path>
        <path d="M20.508,5.06450962 C20.508,5.06450962 24.005,-0.565490385 27.133,0.0465096154 C30.262,0.659509615 30.927,3.07350962 33.481,2.70450962 C36.035,2.33450962 38.481,1.26450962 40.051,3.05750962 C41.62,4.85050962 40.105,8.07150962 41.255,8.97650962 C42.406,9.88150962 48.072,10.8555096 47.366,13.6105096 C46.661,16.3655096 41.631,17.1505096 40.324,16.6815096 C39.017,16.2125096 38.96,20.0465096 35.818,20.6445096 C32.675,21.2425096 30.056,18.8245096 27.755,19.0735096 C22.087,19.6875096 20.444,15.2005096 19.747,13.1905096 C19.323,11.9695096 13.598,10.6475096 9.172,9.79750962 C6.314,9.24950962 0,6.38450962 0,6.38450962 C0,6.38450962 4.858,4.03750962 9.985,3.70750962 C15.112,3.37750962 20.508,5.06450962 20.508,5.06450962 Z" id="path-55"></path>
        <path d="M24.7384714,5.06464882 C24.7384714,5.06464882 28.2354714,-0.566351183 31.3644714,0.0466488172 C34.4924714,0.658648817 35.1584714,3.07364882 37.7124714,2.70364882 C40.2664714,2.33464882 42.2134714,1.87464882 44.2824714,3.05764882 C47.9014714,5.12664882 44.3364714,8.07064882 45.4864714,8.97564882 C46.6374714,9.88064882 50.7544714,11.7696488 50.0494714,14.5236488 C49.3444714,17.2786488 45.8624714,17.1506488 44.5554714,16.6816488 C43.2484714,16.2116488 43.1914714,20.0456488 40.0484714,20.6436488 C36.9064714,21.2416488 31.8024714,19.2836488 29.5004714,19.5326488 C23.8324714,20.1456488 22.8294714,14.4526488 22.1324714,12.4426488 C21.7084714,11.2216488 18.7724714,10.0756488 14.3454714,9.22664882 C11.4874714,8.67764882 0.217471418,6.20464882 0.00347141774,4.41864882 C-0.209528582,2.63264882 9.43547142,1.85964882 13.4914714,2.08264882 C17.5474714,2.30464882 24.7384714,5.06464882 24.7384714,5.06464882 Z" id="path-57"></path>
        <path d="M40.4002125,7.55033449 C40.4002125,7.55033449 47.7272125,5.97033449 48.4222125,8.10233449 C49.1172125,10.2343345 44.9562125,12.9193345 42.8052125,13.2213345 C40.6532125,13.5243345 41.3002125,17.0763345 38.2502125,18.3283345 C35.2002125,19.5813345 32.2412125,16.2603345 30.7822125,17.8283345 C29.3232125,19.3963345 28.9042125,22.0953345 26.2152125,21.8723345 C23.5262125,21.6493345 22.0932125,18.1363345 19.2272125,18.3163345 C16.3612125,18.4953345 2.82521247,19.5533345 0.355212474,18.1773345 C-2.11378753,16.8023345 8.90721247,11.8513345 14.2982125,10.9563345 C19.6892125,10.0623345 20.7292125,8.79033449 21.8152125,5.23133449 C22.9012125,1.67333449 26.4892125,0.946334488 28.8402125,1.50033449 C31.1902125,2.05433449 33.6742125,-0.550665512 36.3722125,0.107334488 C41.7542125,1.41833449 40.4002125,7.55033449 40.4002125,7.55033449 Z" id="path-59"></path>
        <path d="M92.9877659,9.78102043 C92.9877659,9.78102043 102.310766,4.95602043 103.516766,7.88502043 C104.721766,10.8140204 101.186766,12.7070204 98.0877659,14.1940204 C94.9897659,15.6800204 97.9737659,15.1790204 94.0547659,19.6190204 C90.1347659,24.0590204 84.2767659,26.4690204 80.9167659,24.7330204 C77.5567659,22.9960204 75.5527659,25.1990204 72.1447659,27.6870204 C68.5237659,30.3310204 55.1287659,38.1280204 47.3707659,40.8310204 C43.8807659,42.0470204 37.3377659,44.4130204 30.8417659,44.9600204 C22.8977659,45.6290204 14.9577659,43.9150204 14.9577659,43.9150204 C14.9577659,43.9150204 40.3757659,36.2720204 51.6397659,29.1310204 C55.0487659,26.9690204 55.3927659,23.5360204 55.3927659,23.5360204 C55.3927659,23.5360204 50.6407659,19.9680204 42.6477659,18.2200204 C36.9897659,16.9820204 29.3167659,17.4710204 27.6927659,19.1130204 C23.7737659,23.0750204 20.2957659,32.6660204 14.2497659,29.9820204 C8.20376595,27.2990204 7.69576595,19.7130204 7.69576595,19.7130204 C7.69576595,19.7130204 0.0797659484,13.1150204 0,9.42802043 C-0.0772340516,5.74102043 5.81576595,-0.38497957 11.4147659,0.01902043 C17.0147659,0.42202043 22.1857659,5.35602043 26.1497659,7.36102043 C30.1147659,9.36602043 36.5767659,9.05702043 43.5677659,10.4900204 C46.7807659,11.1480204 50.7727659,13.9550204 56.5767659,14.2660204 C60.4887659,14.4750204 62.2267659,10.7930204 66.8047659,10.2270204 C71.3817659,9.66102043 77.6077659,10.1300204 78.8187659,9.95402043 C84.0687659,9.18902043 81.8907659,8.24602043 86.3067659,7.67302043 C90.7227659,7.10002043 92.9877659,9.78102043 92.9877659,9.78102043 Z" id="path-61"></path>
        <path d="M106.406,7.50393968 C106.406,7.50393968 110.875,5.96193968 111.188,3.86793968 C111.5,1.77293968 109.705,-0.204060322 107.059,0.0169396779 C104.709,0.213939678 102.094,2.79793968 102.094,2.79793968 C102.094,2.79793968 99.684,-0.00106032208 97.518,0.466939678 C95.352,0.935939678 94.875,4.05593968 93.788,5.82093968 C92.701,7.58493968 88.429,7.02693968 86.781,8.88893968 C85.134,10.7499397 84.933,14.5299397 84.575,15.8719397 C84.217,17.2149397 73.835,25.8719397 70.78,27.8509397 C67.724,29.8299397 61.932,34.0359397 56.353,36.3789397 C50.773,38.7219397 37.469,43.7269397 31.117,44.3289397 C24.764,44.9299397 -1.13686838e-13,44.4769397 -1.13686838e-13,44.4769397 C-1.13686838e-13,44.4769397 2.589,48.9869397 8.714,50.2929397 C15.323,51.7019397 28.121,52.0109397 33.816,50.9059397 C39.317,49.8399397 54.439,46.5199397 62.207,41.7349397 C66.447,39.1219397 74.542,34.2249397 80.788,30.0399397 C85.984,26.5589397 90.471,21.7339397 90.471,21.7339397 C90.471,21.7339397 94.669,24.7119397 96.479,23.3449397 C98.29,21.9779397 99.556,19.7699397 100.346,18.7119397 C101.135,17.6539397 104.26,18.5799397 106.975,15.4639397 C109.689,12.3479397 106.406,7.50393968 106.406,7.50393968 Z" id="path-63"></path>
    </defs>
    <g id="Page-1" stroke="none" stroke-width="1" fill="none" fill-rule="evenodd">
        <g id="dino_sad" transform="translate(-327.000000, -446.000000)">
            <g id="Слой-1-Clipped">
                <mask id="mask-2" fill="white">
                    <use xlink:href="#path-1"></use>
                </mask>
                <g id="Rectangle"></g>
            </g>
            <g id="Слой-4" transform="translate(396.783000, 629.692720)">
                <g id="Group" transform="translate(85.921923, 18.531280)">
                    <g id="Fill-link" fill="#F6F5DB" fill-rule="nonzero">
                        <path d="M9.97407663,3.695 C9.97407663,3.695 4.61407663,11.153 3.23507663,14.047 C1.85507663,16.94 0.314076633,12.327 0.0350766335,8.834 C-0.243923367,5.342 1.23307663,1.13686838e-13 1.23307663,1.13686838e-13 L9.97407663,3.695 Z" id="Fill"></path>
                    </g>
                    <g id="Clipped">
                        <mask id="mask-4" fill="white">
                            <use xlink:href="#path-3"></use>
                        </mask>
                        <g id="Fill"></g>
                        <path d="M9.03507663,6.322 C9.03507663,6.322 1.45907663,4.118 -1.26592337,4.193 C-3.99192337,4.268 -1.31592337,-1.106 -1.31592337,-1.106 L9.84707663,-0.88 L11.6560766,3.41 L9.03507663,6.322 Z" id="Path" fill="#E9DFAA" mask="url(#mask-4)"></path>
                    </g>
                </g>
                <g id="Group" transform="translate(67.174626, 17.222280)">
                    <g id="Fill_2-link" fill="#F6F5DB" fill-rule="nonzero">
                        <path d="M12.5213741,2.052 C12.5213741,2.052 7.7083741,9.027 6.7753741,12.617 C5.8413741,16.207 3.6643741,19.505 0.8263741,10.261 C-2.0126259,1.017 3.3743741,0 3.3743741,0 L12.5213741,2.052 Z" id="Fill_2"></path>
                    </g>
                    <g id="Clipped">
                        <mask id="mask-6" fill="white">
                            <use xlink:href="#path-5"></use>
                        </mask>
                        <g id="Fill_2"></g>
                        <path d="M11.5203741,5.311 C11.5203741,5.311 1.8373741,4.15 -0.5526259,5.03 C-2.9426259,5.91 -0.6246259,0.095 -0.6246259,0.095 L13.1983741,-2.004 L11.5203741,5.311 Z" id="Path" fill="#E9DFAA" mask="url(#mask-6)"></path>
                    </g>
                </g>
                <g id="Group" transform="translate(51.850637, 18.128595)">
                    <g id="Fill_3-link" fill="#F6F5DB" fill-rule="nonzero">
                        <path d="M13.3603626,1.32768556 C13.3603626,1.32768556 9.62836263,5.33568556 9.02836263,9.43568556 C8.42936263,13.5356856 8.89036263,20.5296856 5.53336263,18.8446856 C2.17736263,17.1606856 -1.66063737,5.79968556 0.761362632,1.89568556 C3.18236263,-2.00831444 13.3603626,1.32768556 13.3603626,1.32768556 Z" id="Fill_3"></path>
                    </g>
                    <g id="Clipped">
                        <mask id="mask-8" fill="white">
                            <use xlink:href="#path-7"></use>
                        </mask>
                        <g id="Fill_3"></g>
                        <path d="M11.1433626,4.61968556 C11.1433626,4.61968556 0.599362632,6.25668556 -2.19263737,6.52868556 C-4.98463737,6.80068556 -3.73763737,-0.339314437 -3.73763737,-0.339314437 L10.9393626,-2.36831444 L13.6903626,-0.123314437 L11.1433626,4.61968556 Z" id="Path" fill="#E9DFAA" mask="url(#mask-8)"></path>
                    </g>
                </g>
                <g id="Group" transform="translate(33.434082, 15.368953)">
                    <g id="Fill_4-link" fill="#F6F5DB" fill-rule="nonzero">
                        <path d="M13.9429182,4.30332695 C13.9429182,4.30332695 10.3309182,9.39932695 9.04191815,12.928327 C8.07791815,15.565327 7.74791815,21.043327 5.84091815,21.234327 C3.93391815,21.426327 -1.98208185,15.679327 0.67491815,4.94332695 C3.33291815,-5.79267305 13.9429182,4.30332695 13.9429182,4.30332695 Z" id="Fill_4"></path>
                    </g>
                    <g id="Clipped">
                        <mask id="mask-10" fill="white">
                            <use xlink:href="#path-9"></use>
                        </mask>
                        <g id="Fill_4"></g>
                        <path d="M11.4039182,9.56732695 C11.4039182,9.56732695 0.88891815,10.419327 -0.97308185,9.48732695 C-2.83508185,8.55432695 0.70591815,3.06732695 0.70591815,3.06732695 L12.5869182,3.51932695 L14.4609182,5.16532695 L11.4039182,9.56732695 Z" id="Path" fill="#E9DFAA" mask="url(#mask-10)"></path>
                    </g>
                </g>
                <g id="Group" transform="translate(76.579442, 19.971695)">
                    <g id="Fill_5-link" fill="#F6F5DB" fill-rule="nonzero">
                        <path d="M4.80955752,6.47758569 C4.80955752,6.47758569 4.37755752,2.57458569 4.89855752,0.722585695 C5.42055752,-1.12841431 1.18755752,0.850585695 0.398557524,3.56658569 C-0.390442476,6.28358569 0.235557524,7.20858569 0.235557524,7.20858569 L4.80955752,6.47758569 Z" id="Fill_5"></path>
                    </g>
                    <g id="Clipped">
                        <mask id="mask-12" fill="white">
                            <use xlink:href="#path-11"></use>
                        </mask>
                        <g id="Fill_5"></g>
                        <polygon id="Path" fill="#E9DFAA" mask="url(#mask-12)" points="5.60155752 3.98658569 -1.01244248 3.82558569 0.507557524 7.58658569 6.14355752 6.98458569"></polygon>
                    </g>
                </g>
                <g id="Group" transform="translate(64.029059, 18.449301)">
                    <g id="Fill_6-link" fill="#F6F5DB" fill-rule="nonzero">
                        <path d="M7.90094078,8.42997977 C7.90094078,8.42997977 6.33694078,5.78497977 6.23494078,3.21797977 C6.13194078,0.65097977 4.81694078,-1.39002023 2.84394078,1.19597977 C0.871940776,3.78197977 -0.0690592245,7.61997977 0.00394077551,9.52197977 C0.0759407755,11.4239798 7.90094078,8.42997977 7.90094078,8.42997977 Z" id="Fill_6"></path>
                    </g>
                    <g id="Clipped">
                        <mask id="mask-14" fill="white">
                            <use xlink:href="#path-13"></use>
                        </mask>
                        <g id="Fill_6"></g>
                        <path d="M7.13094078,5.28897977 C7.13094078,5.28897977 1.07394078,5.95097977 -0.842059224,5.44397977 C-2.75805922,4.93597977 1.30494078,9.55997977 1.30494078,9.55997977 L9.53994078,8.66497977 L7.13094078,5.28897977 Z" id="Path" fill="#E9DFAA" mask="url(#mask-14)"></path>
                    </g>
                </g>
                <g id="Group" transform="translate(47.631867, 17.645177)">
                    <g id="Fill_7-link" fill="#F6F5DB" fill-rule="nonzero">
                        <path d="M9.06113304,10.3911032 C9.06113304,10.3911032 6.16213304,6.32210321 6.01613304,3.63210321 C5.87013304,0.942103209 4.70613304,-0.735896791 3.29713304,0.319103209 C1.88713304,1.37310321 0.106133044,4.48210321 0.00813304448,8.14510321 C-0.0898669555,11.8071032 0.730133044,12.5191032 0.730133044,12.5191032 L9.06113304,10.3911032 Z" id="Fill_7"></path>
                    </g>
                    <g id="Clipped">
                        <mask id="mask-16" fill="white">
                            <use xlink:href="#path-15"></use>
                        </mask>
                        <g id="Fill_7"></g>
                        <path d="M7.44113304,6.16110321 C7.44113304,6.16110321 0.788133044,7.59110321 -2.02486696,6.53510321 C-4.83786696,5.48010321 0.174133044,11.6021032 0.174133044,11.6021032 L11.202133,11.4371032 L7.44113304,6.16110321 Z" id="Path" fill="#E9DFAA" mask="url(#mask-16)"></path>
                    </g>
                </g>
                <g id="Group" transform="translate(31.983342, 16.117130)">
                    <g id="Fill_8-link" fill="#F6F5DB" fill-rule="nonzero">
                        <path d="M11.1826584,12.5361502 C11.1826584,12.5361502 6.58265842,7.26715015 6.71465842,4.38215015 C6.86165842,1.13815015 6.28965842,-1.08084985 4.05465842,0.547150153 C1.81965842,2.17515015 0.265658422,6.91915015 0.0636584219,9.13715015 C-0.195341578,11.9931502 0.419658422,12.5781502 0.419658422,12.5781502 L11.1826584,12.5361502 Z" id="Fill_8"></path>
                    </g>
                    <g id="Clipped">
                        <mask id="mask-18" fill="white">
                            <use xlink:href="#path-17"></use>
                        </mask>
                        <g id="Fill_8"></g>
                        <polygon id="Path" fill="#E9DFAA" mask="url(#mask-18)" points="8.58065842 8.54015015 -2.24934158 6.86815015 -2.15434158 12.5971502 11.7756584 13.3441502"></polygon>
                    </g>
                </g>
                <g id="Group" transform="translate(12.818304, 10.224576)">
                    <g id="Fill_9-link" fill="#F6F5DB" fill-rule="nonzero">
                        <path d="M10.9166957,15.5107047 C10.9166957,15.5107047 9.95169573,8.0437047 11.5706957,5.1987047 C13.1896957,2.3547047 13.0236957,-0.508295304 10.4616957,0.0767046961 C7.89869573,0.661704696 0.890695727,5.5997047 0.0436957269,9.5997047 C-0.802304273,13.5987047 10.9166957,15.5107047 10.9166957,15.5107047 Z" id="Fill_9"></path>
                    </g>
                    <g id="Clipped">
                        <mask id="mask-20" fill="white">
                            <use xlink:href="#path-19"></use>
                        </mask>
                        <g id="Fill_9"></g>
                        <polygon id="Path" fill="#E9DFAA" mask="url(#mask-20)" points="11.7316957 10.7777047 1.36869573 4.3477047 -1.03730427 10.4067047 12.2176957 17.6897047"></polygon>
                    </g>
                </g>
                <g id="Group">
                    <g id="Fill_10-link" fill="#F6F5DB" fill-rule="nonzero">
                        <path d="M0,10.3442804 C0,10.3442804 2.751,3.89928041 6.309,1.52728041 C9.866,-0.845719594 12.335,-0.902719594 11.059,4.61628041 C9.523,11.2572804 10.729,19.4022804 10.729,19.4022804 L0,10.3442804 Z" id="Fill_10"></path>
                    </g>
                    <g id="Clipped">
                        <mask id="mask-22" fill="white">
                            <use xlink:href="#path-21"></use>
                        </mask>
                        <g id="Fill_10"></g>
                        <polygon id="Path" fill="#E9DFAA" mask="url(#mask-22)" points="11.513 12.4092804 0.738 3.63028041 -0.481 11.6882804 10.81 19.7092804"></polygon>
                    </g>
                </g>
            </g>
            <g id="Слой-5" transform="translate(380.504411, 616.046000)">
                <g id="Group">
                    <g id="Fill_11-link" fill="#F6F5DB" fill-rule="nonzero">
                        <path d="M6.58258872,0 C6.58258872,0 1.08058872,6.859 0.227588716,12.649 C-0.665411284,18.716 1.20758872,25.659 3.44158872,25.268 C5.25458872,24.951 10.9945887,11.101 14.1155887,10.374 C17.2355887,9.647 6.58258872,0 6.58258872,0 Z" id="Fill_11"></path>
                    </g>
                    <g id="Clipped">
                        <mask id="mask-24" fill="white">
                            <use xlink:href="#path-23"></use>
                        </mask>
                        <g id="Fill_11"></g>
                        <g id="Group" mask="url(#mask-24)">
                            <g transform="translate(1.886787, -2.624000)" id="Path">
                                <path d="M8.8208019,18.057 C8.8208019,18.057 0.325801901,9.027 0.0108019007,5.886 C-0.303198099,2.745 6.3328019,0 6.3328019,0 L15.2018019,11.99 L8.8208019,18.057 Z" stroke="none" fill="#E9DFAA" fill-rule="evenodd"></path>
                                <path d="M7.4418019,7.273 C7.4418019,7.273 4.0608019,11.478 3.4538019,14.227" stroke="#8C8B8A" stroke-width="0.3" fill="none" stroke-linecap="round" stroke-linejoin="round"></path>
                            </g>
                        </g>
                    </g>
                </g>
                <g id="Group" transform="translate(13.348988, 14.577354)">
                    <g id="Fill_12-link" fill="#F6F5DB" fill-rule="nonzero">
                        <path d="M15.2116005,6.48864579 C15.2116005,6.48864579 9.33060054,10.8986458 6.21960054,15.5246458 C3.22260054,19.9796458 2.43560054,21.3186458 0.635600537,19.1126458 C-1.16439946,16.9056458 1.09560054,3.88364579 4.44560054,0.686645793 C7.79560054,-2.50935421 15.2116005,6.48864579 15.2116005,6.48864579 Z" id="Fill_12"></path>
                    </g>
                    <g id="Clipped">
                        <mask id="mask-26" fill="white">
                            <use xlink:href="#path-25"></use>
                        </mask>
                        <g id="Fill_12"></g>
                        <g id="Group" mask="url(#mask-26)">
                            <g transform="translate(1.008172, -2.121354)" id="Path">
                                <path d="M10.7114289,14.135 C10.7114289,14.135 0.566428902,8.263 0.0394289017,5.957 C-0.487571098,3.651 4.4424289,0 4.4424289,0 L15.3824289,6.733 L10.7114289,14.135 Z" stroke="none" fill="#E9DFAA" fill-rule="evenodd"></path>
                                <path d="M6.3204289,2.442 C6.3204289,2.442 2.3404289,9.494 2.2014289,11.37" stroke="#8C8B8A" stroke-width="0.3" fill="none" stroke-linecap="round" stroke-linejoin="round"></path>
                            </g>
                        </g>
                    </g>
                </g>
                <g id="Group" transform="translate(31.037515, 22.518000)">
                    <g id="Fill_13-link" fill="#F6F5DB" fill-rule="nonzero">
                        <path d="M13.0870733,8.715 C13.0870733,8.715 6.78107335,19.482 5.54907335,21.567 C4.00507335,24.18 0.267073348,23.622 0.0110733477,14.182 C-0.255926652,4.317 4.39407335,0 4.39407335,0 L13.0870733,8.715 Z" id="Fill_13"></path>
                    </g>
                    <g id="Clipped">
                        <mask id="mask-28" fill="white">
                            <use xlink:href="#path-27"></use>
                        </mask>
                        <g id="Fill_13"></g>
                        <g id="Group" mask="url(#mask-28)">
                            <g transform="translate(-0.270804, 0.480000)" id="Path">
                                <path d="M11.8788777,13.261 C11.8788777,13.261 2.18887771,10.072 0.465877713,8.325 C-1.25612229,6.579 2.34987771,0 2.34987771,0 L16.5518777,5.321 L11.8788777,13.261 Z" stroke="none" fill="#E9DFAA" fill-rule="evenodd"></path>
                                <path d="M6.96387771,5.259 C6.96387771,5.259 4.81687771,10.147 4.28387771,12.596" stroke="#8C8B8A" stroke-width="0.3" fill="none" stroke-linecap="round" stroke-linejoin="round"></path>
                            </g>
                        </g>
                    </g>
                </g>
            </g>
            <g id="7" transform="translate(550.826000, 646.691000)" fill="#F6F5DB">
                <path d="M11.517,0 C11.517,0 12.673,8.072 9.046,11.032 C5.42,13.991 0,15.095 0,15.095 C0,15.095 11.916,17.225 15.653,16.661 C19.389,16.097 25.883,12.244 26.046,8.751 C26.123,7.094 24.092,4.283 20.638,2.582 C16.811,0.697 11.517,0 11.517,0 Z" id="Path"></path>
            </g>
            <g id="Слой-7" transform="translate(330.274066, 448.852050)" stroke="#9FB3CD" stroke-linecap="round" stroke-linejoin="round" stroke-width="2">
                <path d="M169.282934,68.37995 C169.282934,68.37995 157.939934,70.34195 157.423934,62.21195 C156.906934,54.08195 170.286934,56.99095 170.286934,56.99095 C170.286934,56.99095 169.562934,44.63395 176.436934,40.98795 C183.309934,37.34295 188.262934,52.95595 188.262934,52.95595 C188.262934,52.95595 192.093934,46.99395 197.527934,47.82695 C202.961934,48.65995 206.002934,57.44395 206.002934,57.44395 C206.002934,57.44395 218.026934,51.88695 219.209934,59.36695 C220.392934,66.84695 201.942934,69.49495 189.573934,69.58495 C182.947934,69.63395 169.282934,68.37995 169.282934,68.37995 Z" id="Path"></path>
                <path d="M106.340934,18.22395 C106.340934,18.22395 98.3229344,19.50395 97.9569344,14.20095 C97.5919344,8.89894999 107.049934,10.79595 107.049934,10.79595 C107.049934,10.79595 106.538934,2.73694999 111.396934,0.359949994 C116.255934,-2.01805001 119.756934,8.16494999 119.756934,8.16494999 C119.756934,8.16494999 122.464934,4.27694999 126.305934,4.81994999 C130.147934,5.36294999 132.297934,11.09095 132.297934,11.09095 C132.297934,11.09095 140.796934,7.46794999 141.632934,12.34595 C142.468934,17.22395 129.426934,18.95095 120.683934,19.00995 C115.999934,19.04195 106.340934,18.22395 106.340934,18.22395 Z" id="Path"></path>
                <path d="M78.3719344,82.84595 C78.7419344,71.75095 61.9039344,76.14795 61.9039344,76.14795 C61.9039344,76.14795 62.3879344,59.28695 53.5589344,54.54295 C44.7289344,49.79895 39.0029344,71.23395 39.0029344,71.23395 C39.0029344,71.23395 33.9459344,63.23495 27.0949344,64.54595 C20.2439344,65.85695 16.6999344,77.92495 16.6999344,77.92495 C16.6999344,77.92495 1.28293443,70.74395 0.0469344308,80.97395 C-1.18906557,91.20495 22.2619344,94.21395 37.9249344,93.93595 C46.3159344,93.78695 78.0019344,93.94095 78.3719344,82.84595 Z" id="Path"></path>
                <path d="M119.834934,39.41595 C119.117934,40.84995 120.166934,44.41695 120.337934,45.95495" id="Path"></path>
                <polyline id="Path" points="140.455934 68.83895 140.455934 69.59395 140.707934 71.60495 140.958934 72.35995 140.958934 72.35995"></polyline>
                <path d="M177.799934,86.44295 C177.708934,85.84895 177.691934,84.14495 177.422934,84.68195 C177.120934,85.28695 177.571934,86.02595 177.674934,86.69395 C177.739934,87.11695 177.734934,88.33395 177.925934,87.95095 C178.151934,87.49995 177.876934,86.94095 177.799934,86.44295 Z" id="Path"></path>
                <path d="M99.9679344,52.49295 C99.9679344,51.57095 99.9679344,50.64895 99.9679344,49.72695 C99.9679344,49.55895 99.9679344,50.06195 99.9679344,50.22995 C99.9679344,50.98395 99.9679344,53.24795 99.9679344,52.49295 Z" id="Path"></path>
                <path d="M147.999934,34.38695 C147.999934,36.75095 148.332934,38.11295 148.754934,40.92495" id="Path"></path>
                <path d="M106.003934,83.17295 C106.003934,85.23095 106.254934,86.96895 106.254934,89.20895" id="Path"></path>
                <path d="M51.6849344,113.60195 C51.6849344,115.78195 51.6849344,117.96095 51.6849344,120.13995" id="Path"></path>
                <path d="M91.1669344,110.83595 C90.4769344,112.21595 91.1699344,114.62595 91.4179344,116.11695" id="Path"></path>
                <polyline id="Path" points="140.707934 108.32095 140.707934 109.07495 140.707934 110.83595 140.707934 111.84195 140.707934 111.84195"></polyline>
                <path d="M204.079934,81.66495 C204.079934,83.79495 204.177934,85.80895 204.330934,87.95095" id="Path"></path>
                <path d="M182.703934,108.32095 C182.703934,109.41095 182.703934,110.49995 182.703934,111.58995" id="Path"></path>
                <path d="M214.138934,110.08095 C213.491934,111.37395 213.886934,113.63495 213.886934,115.11095" id="Path"></path>
                <path d="M22.5139344,108.82395 C22.5139344,109.32695 22.6149344,109.83995 22.5139344,110.33295 C22.0599344,112.52295 21.5079344,114.69195 21.0049344,116.87095" id="Path"></path>
            </g>
            <g id="Сл-" transform="translate(380.946130, 665.262337)">
                <g id="Group" transform="translate(153.032813, 0.000000)">
                    <g id="Fill_14-link" fill="#F6F5DB" fill-rule="nonzero">
                        <path d="M33.7590569,12.6346631 C33.7590569,12.6346631 38.6520569,15.2996631 40.1790569,14.1706631 C41.7060569,13.0426631 40.9070569,7.33466309 36.3320569,6.83866309 C31.7570569,6.34366309 34.4170569,3.91966309 31.8780569,2.03766309 C29.3390569,0.155663086 27.1570569,2.01966309 25.1340569,1.86066309 C23.1110569,1.70166309 18.9960569,-1.20033691 17.0110569,0.570663086 C15.0260569,2.34166309 12.7280569,5.33666309 12.7280569,5.33666309 C12.7280569,5.33666309 1.86305695,6.49066309 0.169056946,8.01366309 C-1.52494305,9.53566309 10.0280569,13.1036631 11.7920569,12.7536631 C13.5570569,12.4036631 13.3830569,17.0316631 16.2370569,16.9846631 C19.0900569,16.9376631 20.0900569,14.5736631 22.5570569,16.3416631 C25.0230569,18.1096631 26.2760569,20.1346631 28.9850569,19.1536631 C31.6950569,18.1726631 33.7590569,12.6346631 33.7590569,12.6346631 Z" id="Fill_14"></path>
                    </g>
                    <g id="Clipped">
                        <mask id="mask-30" fill="white">
                            <use xlink:href="#path-29"></use>
                        </mask>
                        <g id="Fill_14"></g>
                        <path d="M1.11905695,6.25566309 C1.11905695,6.25566309 6.79805695,10.7516631 10.2850569,11.0826631 C11.0320569,11.1536631 13.0770569,11.7536631 13.6240569,12.1186631 C15.6290569,13.4546631 15.0560569,15.8836631 19.0860569,14.6046631 C23.1150569,13.3256631 24.0000569,16.8786631 27.1580569,17.5686631 C30.3170569,18.2596631 31.5740569,12.2236631 33.1180569,11.3926631 C34.6630569,10.5626631 39.1970569,15.2916631 42.6550569,13.8616631 C46.1120569,12.4306631 35.3710569,18.5436631 35.3710569,18.5436631 L25.1140569,20.0616631 L12.7260569,17.2746631 L-2.54594305,8.83966309 L1.11905695,6.25566309 Z" id="Path" fill="#E9DFAA" mask="url(#mask-30)"></path>
                    </g>
                </g>
                <g id="Group" transform="translate(121.649218, 63.082465)">
                    <g id="Fill_15-link" fill="#F6F5DB" fill-rule="nonzero">
                        <path d="M0.00965152372,5.81219814 C0.509651524,3.14919814 11.2826515,-1.23880186 14.6286515,0.330198141 C17.9736515,1.89919814 19.0526515,6.21719814 18.2016515,8.15019814 C17.3516515,10.0821981 12.1636515,7.89419814 10.4436515,6.56119814 C8.72465152,5.22719814 -0.336348476,7.65619814 0.00965152372,5.81219814 Z" id="Fill_15"></path>
                    </g>
                    <g id="Clipped">
                        <mask id="mask-32" fill="white">
                            <use xlink:href="#path-31"></use>
                        </mask>
                        <g id="Fill_15"></g>
                        <path d="M-0.667348476,6.66419814 L13.2626515,2.69819814 C13.2626515,2.69819814 11.6196515,3.93619814 13.4666515,5.61619814 C15.3136515,7.29719814 20.6696515,9.11519814 20.6696515,9.11519814 L12.2416515,10.0151981 L-0.667348476,6.66419814 Z" id="Path" fill="#E9DFAA" mask="url(#mask-32)"></path>
                    </g>
                </g>
                <g id="Group" transform="translate(66.426343, 100.689284)">
                    <g id="Fill_16-link" fill="#F6F5DB" fill-rule="nonzero">
                        <path d="M8.14952683,11.5653788 C8.96952683,9.85837881 7.10852683,7.88837881 7.17852683,5.13337881 C7.24852683,2.37737881 10.7295268,-0.277621187 12.5275268,0.0233788125 C15.7455268,0.562378813 15.3145268,3.44437881 16.6355268,4.62637881 C17.9565268,5.80837881 23.8855268,7.57637881 22.9465268,9.86337881 C21.2745268,13.9323788 17.6935268,12.4943788 16.7475268,14.3533788 C16.3935268,15.0493788 16.0545268,18.6783788 16.1005268,20.6613788 C16.1775268,23.9713788 16.6465268,26.0843788 14.9095268,27.1493788 C12.1325268,28.8523788 7.85952683,25.9883788 7.85952683,25.9883788 C7.85952683,25.9883788 1.65652683,27.9153788 0.601526825,25.5913788 C-0.453473175,23.2663788 -0.364473175,21.7213788 2.87052683,17.9263788 C6.10552683,14.1313788 7.32952683,13.2723788 8.14952683,11.5653788 Z" id="Fill_16"></path>
                    </g>
                    <g id="Clipped">
                        <mask id="mask-34" fill="white">
                            <use xlink:href="#path-33"></use>
                        </mask>
                        <g id="Fill_16"></g>
                        <path d="M-1.23447317,23.8313788 C-1.23447317,23.8313788 5.36652683,25.6723788 6.72052683,24.3523788 C8.07552683,23.0323788 8.80552683,20.6133788 8.80552683,20.6133788 C8.80552683,20.6133788 10.9735268,24.2603788 13.3025268,22.2403788 C15.6305268,20.2203788 18.0595268,17.0333788 18.0595268,17.0333788 L21.3215268,26.1953788 L16.0035268,32.5953788 L3.61952683,29.6693788 L-1.23447317,23.8313788 Z" id="Path" fill="#E9DFAA" mask="url(#mask-34)"></path>
                    </g>
                </g>
                <g id="Group" transform="translate(32.173434, 109.585176)">
                    <g id="Fill_17-link" fill="#F6F5DB" fill-rule="nonzero">
                        <path d="M5.45043532,6.67948756 C5.45043532,6.67948756 5.04043532,1.12648756 8.34443532,0.286487558 C11.6494353,-0.553512442 12.7064353,0.550487558 13.5154353,2.33848756 C14.3254353,4.12648756 17.1044353,8.46948756 17.1044353,8.46948756 C17.1044353,8.46948756 25.5994353,16.0844876 28.1524353,16.6694876 C30.7054353,17.2554876 34.5574353,19.0244876 34.3754353,21.5744876 C34.1924353,24.1254876 32.8114353,25.7384876 32.8114353,25.7384876 C32.8114353,25.7384876 34.5264353,28.7554876 33.5214353,30.6414876 C32.5154353,32.5274876 29.1564353,34.9034876 26.3714353,33.2954876 C23.5864353,31.6874876 21.7164353,25.0324876 21.4834353,22.6204876 C21.2494353,20.2094876 16.2814353,17.0804876 14.9414353,16.3094876 C13.6014353,15.5384876 9.97943532,15.3744876 7.69743532,15.9824876 C5.41543532,16.5904876 2.34343532,16.4814876 1.11543532,14.4304876 C-0.111564678,12.3784876 -0.419564678,10.8244876 0.663435322,8.88648756 C1.74743532,6.94948756 5.45043532,6.67948756 5.45043532,6.67948756 Z" id="Fill_17"></path>
                    </g>
                    <g id="Clipped">
                        <mask id="mask-36" fill="white">
                            <use xlink:href="#path-35"></use>
                        </mask>
                        <g id="Fill_17"></g>
                        <path d="M5.90743532,1.52448756 C5.90743532,1.52448756 6.78443532,6.04148756 12.4844353,10.6594876 C18.1854353,15.2774876 20.8874353,16.4984876 22.9274353,18.4474876 C26.4684353,21.8304876 28.5994353,24.6864876 32.0564353,24.9314876 C35.5124353,25.1764876 40.0064353,24.3554876 40.0064353,24.3554876 C40.0064353,24.3554876 31.4514353,37.0874876 30.7734353,37.4564876 C30.5124353,37.5984876 26.8444353,36.5974876 24.2614353,33.8354876 C20.1444353,29.4314876 16.4944353,22.4044876 16.4944353,22.4044876 L2.34943532,16.5874876 L-1.45056468,11.3314876 L2.31043532,5.10748756 L5.90743532,1.52448756 Z" id="Path" fill="#E9DFAA" mask="url(#mask-36)"></path>
                    </g>
                </g>
                <g id="Group" transform="translate(23.316455, 99.432800)">
                    <g id="Fill_18-link" fill="#F6F5DB" fill-rule="nonzero">
                        <path d="M13.6124143,10.585863 C13.1684143,12.465863 9.92241431,14.042863 8.33141431,12.967863 C6.73941431,11.892863 5.37641431,7.67786303 4.45741431,6.88986303 C3.53841431,6.10186303 0.427414315,4.88286303 0.0454143146,3.29886303 C-0.335585685,1.71486303 1.75841431,-0.500136973 3.41741431,0.100863027 C5.07641431,0.702863027 9.88641431,3.37786303 10.5114143,4.39686303 C11.1354143,5.41586303 14.1824143,8.17486303 13.6124143,10.585863 Z" id="Fill_18"></path>
                    </g>
                    <g id="Clipped">
                        <mask id="mask-38" fill="white">
                            <use xlink:href="#path-37"></use>
                        </mask>
                        <g id="Fill_18"></g>
                        <path d="M11.8514143,13.120863 C11.8514143,13.120863 7.66441431,11.654863 6.46941431,7.94486303 C5.95541431,6.35086303 2.42441431,4.10186303 0.286414315,2.93186303 C-1.85158569,1.76186303 -0.416585685,5.84986303 -0.416585685,5.84986303 L7.02841431,13.439863 L10.4194143,14.280863 L11.8514143,13.120863 Z" id="Path" fill="#E9DFAA" mask="url(#mask-38)"></path>
                    </g>
                </g>
                <g id="Group" transform="translate(7.367535, 96.733016)">
                    <g id="Fill_19-link" fill="#F6F5DB" fill-rule="nonzero">
                        <path d="M13.7683346,1.72064703 C13.7683346,1.72064703 12.0843346,2.83764703 11.6543346,4.35364703 C11.2233346,5.86964703 12.4003346,7.47064703 11.4183346,8.06664703 C10.4353346,8.66164703 9.62333461,7.39764703 6.94933461,6.79564703 C4.27533461,6.19364703 0.440334614,5.36864703 0.0903346135,4.53664703 C-0.598665386,2.89964703 2.82233461,0.738647027 4.62833461,0.260647027 C8.63133461,-0.800352973 13.7683346,1.72064703 13.7683346,1.72064703 Z" id="Fill_19"></path>
                    </g>
                    <g id="Clipped">
                        <mask id="mask-40" fill="white">
                            <use xlink:href="#path-39"></use>
                        </mask>
                        <g id="Fill_19"></g>
                        <path d="M13.5003346,6.32864703 C13.5003346,6.32864703 9.76633461,3.96264703 4.33233461,4.61664703 C0.852334614,5.03564703 0.478334614,-0.371352973 0.478334614,-0.371352973 L-1.18566539,6.04164703 C-1.18566539,6.04164703 6.65433461,9.03464703 7.27833461,8.97064703 C7.90233461,8.90764703 11.9793346,9.48664703 12.5343346,9.44064703 C13.0903346,9.39364703 13.5003346,6.32864703 13.5003346,6.32864703 Z" id="Path" fill="#E9DFAA" mask="url(#mask-40)"></path>
                    </g>
                </g>
                <g id="Group" transform="translate(14.564699, 109.096661)">
                    <g id="Fill_20-link" fill="#F6F5DB" fill-rule="nonzero">
                        <path d="M14.4781703,9.38300208 C13.7181703,11.0030021 11.7711703,12.0880021 10.2241703,10.5680021 C8.67617031,9.04700208 6.31717031,7.79700208 4.93217031,7.72100208 C3.54817031,7.64400208 1.26817031,6.41400208 0.365170313,4.48000208 C-0.536829687,2.54500208 0.319170313,0.477002078 1.97917031,0.0630020783 C3.63817031,-0.349997922 7.33417031,1.37000208 8.91017031,2.23900208 C10.4851703,3.10700208 13.7861703,4.76900208 14.3681703,5.56700208 C15.1241703,6.60200208 15.1681703,7.91400208 14.4781703,9.38300208 Z" id="Fill_20"></path>
                    </g>
                    <g id="Clipped">
                        <mask id="mask-42" fill="white">
                            <use xlink:href="#path-41"></use>
                        </mask>
                        <g id="Fill_20"></g>
                        <path d="M13.8721703,10.9350021 C13.8721703,10.9350021 9.49317031,9.38000208 7.92317031,8.11700208 C6.63417031,7.08000208 3.06817031,6.88300208 1.65017031,6.61800208 C0.232170313,6.35400208 4.36117031,10.2910021 4.83917031,10.5550021 C5.31817031,10.8190021 11.7791703,12.6560021 11.7791703,12.6560021 L13.8721703,10.9350021 Z" id="Path" fill="#E9DFAA" mask="url(#mask-42)"></path>
                    </g>
                </g>
                <g id="Group" transform="translate(0.000000, 109.810663)">
                    <g id="Fill_21-link" fill="#F6F5DB" fill-rule="nonzero">
                        <path d="M11.4418696,-1.13686838e-13 C11.4418696,-1.13686838e-13 6.64286957,0.524 3.28286957,3.2 C1.11886957,4.925 -0.562130433,7.684 0.176869567,8.85 C0.906869567,10 4.18386957,8.855 7.08486957,9.024 C9.98586957,9.192 11.9448696,11.131 13.5278696,8.887 C14.5348696,7.461 13.1708696,5.592 12.6218696,4.541 C12.0728696,3.49 11.4418696,-1.13686838e-13 11.4418696,-1.13686838e-13 Z" id="Fill_21"></path>
                    </g>
                    <g id="Clipped">
                        <mask id="mask-44" fill="white">
                            <use xlink:href="#path-43"></use>
                        </mask>
                        <g id="Fill_21"></g>
                        <path d="M14.2108696,6.582 C14.2108696,6.582 12.9058696,8.663 11.7008696,8.722 C10.4958696,8.781 7.89486957,7.892 7.11286957,7.846 C6.33086957,7.8 2.70286957,8.455 1.62086957,8.44 C0.538869567,8.425 -1.69713043,7.834 -1.69713043,7.834 C-1.69713043,7.834 2.61786957,11.608 3.09586957,11.788 C3.57386957,11.968 10.6048696,12.505 11.1948696,12.399 C11.7848696,12.293 15.1108696,7.847 15.1108696,7.847 L14.2108696,6.582 Z" id="Path" fill="#E9DFAA" mask="url(#mask-44)"></path>
                    </g>
                </g>
                <g id="Group" transform="translate(17.556649, 122.616731)">
                    <g id="Fill_22-link" fill="#F6F5DB" fill-rule="nonzero">
                        <path d="M0.990220455,3.87393191 C-0.083779545,5.95793191 -0.652779545,8.68393191 1.24422045,8.76693191 C3.14022045,8.84993191 5.24322045,7.08693191 6.87422045,6.64993191 C8.50622045,6.21193191 10.5712205,6.00193191 11.5352205,4.99193191 C12.4982205,3.98093191 13.4222205,1.77693191 11.8982205,0.904931908 C10.3742205,0.0329319084 7.58922045,-0.326068092 5.79422045,0.357931908 C3.99922045,1.04193191 2.06422045,1.78893191 0.990220455,3.87393191 Z" id="Fill_22"></path>
                    </g>
                    <g id="Clipped">
                        <mask id="mask-46" fill="white">
                            <use xlink:href="#path-45"></use>
                        </mask>
                        <g id="Fill_22"></g>
                        <path d="M13.1112205,1.83593191 C13.1112205,1.83593191 11.5432205,3.96293191 10.2302205,4.53693191 C8.91722045,5.10993191 5.97422045,5.44393191 5.10122045,6.10093191 C4.22922045,6.75793191 0.583220455,9.33393191 -0.655779545,8.64293191 C-1.27477955,8.29793191 -0.615779545,10.2579319 0.826220455,10.5939319 C2.27022045,10.9299319 4.49722045,9.64193191 4.49722045,9.64193191 C4.49722045,9.64193191 9.62222045,8.17093191 10.2702205,7.87493191 C10.9182205,7.57993191 13.2372205,4.88193191 13.3242205,4.65793191 C13.4102205,4.43393191 13.1112205,1.83593191 13.1112205,1.83593191 Z" id="Path" fill="#E9DFAA" mask="url(#mask-46)"></path>
                    </g>
                </g>
                <g id="Group" transform="translate(4.200786, 128.625663)">
                    <g id="Fill_23-link" fill="#F6F5DB" fill-rule="nonzero">
                        <path d="M11.1390832,1.13686838e-13 C11.1390832,1.13686838e-13 5.02708319,0.432 3.09008319,1.78 C1.38808319,2.964 -0.725916811,5.702 0.245083189,7.275 C1.21608319,8.848 4.29308319,7.379 6.76208319,7.363 C8.86308319,7.35 12.2020832,7.5 11.4800832,5.321 C11.1870832,4.438 10.5750832,3.805 10.4680832,2.851 C10.2820832,1.212 11.1390832,1.13686838e-13 11.1390832,1.13686838e-13 Z" id="Fill_23"></path>
                    </g>
                    <g id="Clipped">
                        <mask id="mask-48" fill="white">
                            <use xlink:href="#path-47"></use>
                        </mask>
                        <g id="Fill_23"></g>
                        <path d="M11.6980832,4.128 C11.6980832,4.128 10.7210832,5.65 9.82608319,6.011 C8.93108319,6.371 5.38708319,5.962 4.80808319,6.173 C4.22808319,6.385 0.741083189,7.674 -0.418916811,7.009 C-1.12191681,6.606 -0.166916811,8.541 1.40608319,9.211 C2.42808319,9.647 4.22508319,9.108 4.22508319,9.108 L11.2300832,8.064 L12.4550832,5.65 L11.6980832,4.128 Z" id="Path" fill="#E9DFAA" mask="url(#mask-48)"></path>
                    </g>
                </g>
                <g id="Group" transform="translate(91.666395, 100.460070)">
                    <g id="Fill_24-link" fill="#F6F5DB" fill-rule="nonzero">
                        <path d="M94.0334747,4.74359299 C94.0334747,4.74359299 100.704475,-0.417407007 103.142475,1.05059299 C105.579475,2.51859299 107.492475,4.45559299 105.404475,6.51959299 C103.315475,8.58359299 97.2644747,9.10559299 97.2644747,9.10559299 C97.2644747,9.10559299 98.1664747,10.615593 98.6674747,13.392593 C99.1684747,16.170593 95.3404747,19.118593 93.3084747,19.283593 C91.2764747,19.448593 90.0534747,23.002593 87.8504747,24.454593 C85.6484747,25.905593 81.1844747,22.066593 81.1844747,22.066593 C81.1844747,22.066593 72.4334747,31.618593 67.4604747,34.360593 C62.4874747,37.102593 47.2554747,43.477593 38.6674747,45.296593 C29.7254747,47.191593 21.4574747,46.478593 13.9114747,43.438593 C6.36547466,40.398593 -1.86852534,35.201593 0.375474658,33.636593 C2.61947466,32.071593 17.5224747,37.494593 25.1684747,37.937593 C32.8144747,38.380593 39.7994747,36.527593 48.0474747,34.298593 C50.8494747,33.542593 57.6204747,30.493593 63.3624747,27.140593 C69.9024747,23.321593 77.2734747,17.572593 77.2734747,17.572593 C77.2734747,17.572593 72.1194747,12.751593 74.2344747,9.16859299 C76.3484747,5.58659299 81.6394747,7.38359299 81.6394747,7.38359299 C81.6394747,7.38359299 84.5174747,-0.125407007 87.5264747,0.00159299269 C91.9554747,0.187592993 94.0334747,4.74359299 94.0334747,4.74359299 Z" id="Fill_24"></path>
                    </g>
                    <g id="Clipped">
                        <mask id="mask-50" fill="white">
                            <use xlink:href="#path-49"></use>
                        </mask>
                        <g id="Fill_24"></g>
                        <path d="M98.8564747,11.825593 C98.8564747,11.825593 97.5334747,16.400593 95.2814747,17.226593 C93.0294747,18.051593 92.3364747,17.386593 90.9514747,18.595593 C89.5664747,19.803593 88.5724747,23.333593 87.0034747,23.524593 C85.4344747,23.715593 81.3214747,20.146593 81.3214747,20.146593 C81.3214747,20.146593 77.0904747,24.066593 74.1854747,26.865593 C67.6434747,33.170593 59.1424747,36.104593 53.9414747,38.472593 C51.3174747,39.666593 43.7634747,42.299593 36.3984747,43.487593 C29.1704747,44.654593 22.1504747,44.402593 17.5104747,42.854593 C8.12847466,39.724593 -0.989525342,34.548593 -0.989525342,34.548593 L13.3974747,50.192593 L33.1354747,53.910593 C33.1354747,53.910593 62.2424747,43.749593 63.1584747,43.450593 C64.0734747,43.152593 81.4444747,33.642593 81.4444747,33.642593 L99.4064747,18.569593 L98.8564747,11.825593 Z" id="Path" fill="#E9DFAA" mask="url(#mask-50)"></path>
                    </g>
                </g>
            </g>
            <g id="Слой-3" transform="translate(383.887000, 581.107076)">
                <g id="Group">
                    <g id="Fill_25-link" fill="#F6F5DB" fill-rule="nonzero">
                        <path d="M142.175,2.48692403 C139.751,1.15492403 136.898,0.198924035 133.62,0.0339240346 C125.126,-0.393075965 120.715,3.35192403 120.715,3.35192403 C120.715,3.35192403 113.628,2.80992403 97.848,2.31092403 C82.068,1.81192403 60.799,8.29992403 55.248,8.17292403 C49.696,8.04492403 46.474,5.11492403 32.46,8.09092403 C18.446,11.067924 0,29.398924 0,29.398924 C0,29.398924 5.105,44.295924 13.186,50.509924 C21.869,57.186924 41.38,68.760924 47.866,69.792924 C60.927,71.869924 81.44,67.201924 93.085,68.426924 C104.73,69.650924 119.063,74.396924 126.756,79.512924 C134.449,84.627924 152.152,87.594924 156.999,85.688924 C161.845,83.783924 165.306,78.799924 165.306,78.799924 C165.306,78.799924 171.58,78.531924 174.563,75.181924 C177.545,71.831924 177.889,63.541924 177.889,63.541924 C177.889,63.541924 186.106,52.546924 187.581,46.359924 C189.056,40.172924 180.922,32.067924 174.674,25.088924 C168.425,18.108924 152.939,13.930924 152.939,13.930924 C152.939,13.930924 149.447,6.48292403 142.175,2.48692403 Z M130.47,37.608924 C132.01,38.705924 133.296,40.364924 134.025,42.850924 C136.944,52.794924 106.789,58.695924 106.789,58.695924 C106.789,58.695924 97.638,33.718924 104.083,29.632924 C114.21,23.211924 119.063,36.136924 119.063,36.136924 C119.063,36.136924 125.85,34.317924 130.47,37.608924 Z M84.435,20.643924 C87.04,22.848924 86.544,26.108924 86.006,30.089924 C85.474,34.018924 78.561,44.423924 73.958,46.217924 C69.354,48.011924 69.465,44.144924 63.175,45.706924 C56.886,47.267924 52.069,50.488924 48.011,47.261924 C43.953,44.034924 51.353,32.416924 58.608,27.305924 C66.994,21.396924 74.487,17.029924 80.681,18.820924 C82.348,19.302924 83.567,19.909924 84.435,20.643924 Z M36.659,16.019924 C37.673,16.547924 38.491,17.226924 39.185,17.941924 C43.452,22.338924 33.628,30.799924 31.959,32.121924 C28.216,35.086924 15.31,34.870924 13.073,31.435924 C10.837,28.001924 11.95,25.032924 21.659,18.877924 C28.941,14.260924 33.616,14.435924 36.659,16.019924 Z" id="Fill_25"></path>
                    </g>
                    <g id="Clipped">
                        <mask id="mask-52" fill="white">
                            <use xlink:href="#path-51"></use>
                        </mask>
                        <g id="Fill_25"></g>
                        <g id="Group" mask="url(#mask-52)">
                            <g transform="translate(-2.040000, 5.095924)" id="Path">
                                <path d="M34.095,10.244 C34.095,10.244 39.639,8.567 42.299,11.037 C44.959,13.507 43.619,19.849 41.844,22.522 C38.385,27.731 34.888,29.875 29.341,30.629 C24.209,31.326 15.313,29.896 15.9,26.199 C16.487,22.501 34.095,10.244 34.095,10.244 Z" stroke="none" fill="#E9DFAA" fill-rule="evenodd"></path>
                                <path d="M85.331,15.346 C85.331,15.346 90.35,18.726 90.058,23.856 C89.766,28.985 84.792,40.585 78.254,43.593 C73.645,45.713 69.896,41.935 65.77,43.019 C61.644,44.103 55.871,47.282 52.444,45.604 C49.018,43.926 49.324,38.612 49.324,38.612 L85.331,15.346 Z" stroke="none" fill="#E9DFAA" fill-rule="evenodd"></path>
                                <path d="M106.429,26.854 C108.574,19.701 116.119,19.876 118.923,23.543 C120.594,25.729 121.856,28.615 121.856,28.615 C121.856,28.615 128.794,27.58 132.969,30.463 C137.145,33.345 139.309,36.211 138.356,40.644 C137.402,45.077 134.1,47.33 128.723,49.687 C122.52,52.408 109.568,53.179 109.568,53.179 C109.568,53.179 104.285,34.008 106.429,26.854 Z" stroke="none" fill="#E9DFAA" fill-rule="evenodd"></path>
                                <path d="M0,19.883 C0,19.883 9.51,29.451 19.307,35.186 C29.104,40.922 39.807,46.615 39.807,46.615 C39.807,46.615 54.793,61.288 72.174,57.375 C89.555,53.463 105.814,55.856 115.092,60.168 C126.88,65.647 138.996,75.138 148.447,76.342 C157.899,77.546 159.49,71.852 168.608,70.713 C175.518,69.849 179.185,64.801 179.185,64.801 C179.185,64.801 180.072,66.923 178.087,70.038 C176.103,73.152 168.438,74.598 168.438,74.598 C168.438,74.598 163.183,85.176 153.921,83.949 C144.658,82.721 126.478,77.396 126.478,77.396 L92.102,67.806 L48.834,70.411 L4.024,39.877 L0,19.883 Z" stroke="none" fill="#E9DFAA" fill-rule="evenodd"></path>
                                <path d="M35.016,10.145 C35.016,10.145 39.78,10.747 40.685,11.367 C41.589,11.987 43.952,14.038 42.736,17.78 C41.388,21.927 39.109,24.379 36.466,26.425 C33.822,28.471 30.785,29.964 27.876,29.633 C24.968,29.301 22.357,28.406 22.357,28.406" stroke="#8C8B8A" stroke-width="0.3" fill="none" stroke-linecap="round" stroke-linejoin="round"></path>
                                <path d="M87.998,18.043 C87.998,18.043 90.55,21.009 90.139,24.138 C89.729,27.267 86.964,33.485 86.038,35.293 C85.111,37.1 80.599,42.957 77.773,43.862 C74.601,44.879 68.611,42.702 67.549,42.62 C66.487,42.538 58.477,45.842 55.967,45.938 C54.153,46.008 50.336,45.723 49.94,42.59 C49.544,39.458 50.563,37.802 50.563,37.802" stroke="#8C8B8A" stroke-width="0.3" fill="none" stroke-linecap="round" stroke-linejoin="round"></path>
                                <path d="M120.501,0 C120.501,0 114.555,0.315 113.454,3.867 C112.354,7.419 110.528,6.229 108.255,7.967 C105.981,9.705 104.967,10.8 105.361,14.673" stroke="#8C8B8A" stroke-width="0.3" fill="none" stroke-linecap="round" stroke-linejoin="round"></path>
                                <path d="M106.984,24.54 C106.984,24.54 111.956,18.768 117.421,22.353 C120.564,24.415 121.797,28.632 121.797,28.632 C121.797,28.632 129.445,28.066 133.242,30.807 C136.729,33.325 139.271,36.611 138.225,40.636 C137.179,44.662 133.656,48.616 128.181,50.083 C122.706,51.549 110.11,52.987 110.11,52.987" stroke="#8C8B8A" stroke-width="0.3" fill="none" stroke-linecap="round" stroke-linejoin="round"></path>
                                <path d="M155.01,5.796 C155.01,5.796 155.372,18.566 149.876,26.031 C144.381,33.496 149.421,39.974 148.594,46.419 C147.767,52.864 137.861,62.671 135.99,64.21" stroke="#8C8B8A" stroke-width="0.3" fill="none" stroke-linecap="round" stroke-linejoin="round"></path>
                                <path d="M149.508,26.642 C149.508,26.642 155.55,34.42 158.883,36.343 C163.253,38.864 164.314,43.28 163.058,47.577 C161.803,51.875 157.782,55.508 156.766,58.117 C155.75,60.726 158.311,61.269 158.015,62.868 C157.718,64.467 155.7,65.973 155.7,65.973" stroke="#8C8B8A" stroke-width="0.3" fill="none" stroke-linecap="round" stroke-linejoin="round"></path>
                                <path d="M2.11,23.866 C2.11,23.866 7.351,38.834 13.662,43.58 C19.972,48.325 38.671,60.968 43.528,62.532 C48.386,64.096 49.544,65.764 65.495,65.057 C81.445,64.351 83.56,62.249 96.074,63.432 C108.587,64.615 119.335,69.415 122.944,71.253 C124.82,72.208 130.423,75.449 133.142,76.629 C137.765,78.635 143.747,80.281 150.048,80.763 C157.92,81.366 159.197,81.572 163.304,78.117 C167.023,74.987 167.51,73.472 167.51,73.472 C167.51,73.472 172.213,73.045 173.978,72.139 C177.447,70.357 179.557,64.426 179.557,64.426" stroke="#8C8B8A" stroke-width="0.3" fill="none" stroke-linecap="round" stroke-linejoin="round"></path>
                            </g>
                        </g>
                    </g>
                </g>
                <g id="Group" transform="translate(8.421514, 55.482924)">
                    <g id="Fill_26-link" fill="#F6F5DB" fill-rule="nonzero">
                        <path d="M2.7864863,0 C2.7864863,0 20.3124863,16.091 32.9464863,19.467 C45.5804863,22.843 81.6874863,17.278 88.6404863,17.412 C98.8784863,17.609 106.416486,19.906 110.758486,21.668 C115.100486,23.43 124.859486,28.568 127.704486,33.636 C131.579486,40.537 131.981486,47.505 121.929486,50.487 C111.877486,53.47 101.654486,48.17 95.1724863,51.389 C88.6894863,54.608 87.3694863,57.198 75.9784863,55.803 C64.2364863,54.365 59.1864863,41.889 50.3804863,39.513 C41.5754863,37.136 31.8664863,37.38 19.5534863,31.998 C7.2414863,26.617 3.1254863,23.572 1.1304863,17.986 C-2.1625137,8.765 2.7864863,0 2.7864863,0 Z" id="Fill_26"></path>
                    </g>
                    <g id="Clipped">
                        <mask id="mask-54" fill="white">
                            <use xlink:href="#path-53"></use>
                        </mask>
                        <g id="Fill_26"></g>
                        <g id="Group" mask="url(#mask-54)">
                            <g transform="translate(-9.199099, -1.585000)" id="Path">
                                <path d="M140.269585,45.23 C140.269585,45.23 122.081585,50.894 114.540585,47.889 C107.000585,44.884 97.7005853,46.978 89.5925853,49.744 C81.4855853,52.509 72.6665853,39.223 63.1035853,35.275 C53.5405853,31.326 27.7015853,28.487 20.0755853,23.077 C12.4505853,17.666 10.6185853,0 10.6185853,0 C10.6185853,0 -0.661414661,21.41 0.0305853386,22.39 C0.723585339,23.369 47.3575853,52.989 49.8465853,53.802 C52.3355853,54.615 100.513585,65.459 100.513585,65.459 L128.727585,56.997 L137.428585,49.458 L140.269585,45.23 Z" stroke="none" fill="#E9DFAA" fill-rule="evenodd"></path>
                                <path d="M11.2345853,0.887 C11.2345853,0.887 17.4055853,6.536 23.2895853,10.927 C28.3045853,14.669 33.8435853,17.92 36.6025853,19.167 C41.7295853,21.483 49.4705853,22.433 53.4945853,22.283 C57.5195853,22.134 75.7905853,20.871 82.1025853,20.302 C88.4155853,19.732 98.0705853,18.565 102.506585,19.188 C104.747585,19.503 113.556585,20.862 119.436585,23.114 C125.197585,25.322 130.274585,28.908 133.115585,31.102 C139.940585,36.372 139.719414,44.611 139.719414,44.611" stroke="#8C8B8A" stroke-width="0.3" fill="none" stroke-linecap="round" stroke-linejoin="round"></path>
                                <path d="M105.295585,19.578 C105.295585,19.578 117.597585,23.646 120.000585,33.096" stroke="#8C8B8A" stroke-width="0.3" fill="none" stroke-linecap="round" stroke-linejoin="round"></path>
                                <path d="M115.311585,25.481 C115.311585,25.481 123.131585,23.825 130.670585,29.131" stroke="#8C8B8A" stroke-width="0.3" fill="none" stroke-linecap="round" stroke-linejoin="round"></path>
                                <path d="M16.3525853,13.839 C16.3525853,13.839 16.9115853,17.641 21.3425853,20.27" stroke="#8C8B8A" stroke-width="0.3" fill="none" stroke-linecap="round" stroke-linejoin="round"></path>
                                <path d="M53.6085853,21.369 C53.6085853,21.369 47.0055853,25.156 44.5605853,24.75" stroke="#8C8B8A" stroke-width="0.3" fill="none" stroke-linecap="round" stroke-linejoin="round"></path>
                                <path d="M77.4985853,24.868 C77.4985853,24.868 82.1525853,26.65 85.3185853,24.585 C88.4835853,22.52 92.0755853,23.245 93.4135853,23.524" stroke="#8C8B8A" stroke-width="0.3" fill="none" stroke-linecap="round" stroke-linejoin="round"></path>
                                <path d="M77.8755853,39.986 C77.8755853,39.986 80.6835853,45.355 84.1265853,45.752" stroke="#8C8B8A" stroke-width="0.3" fill="none" stroke-linecap="round" stroke-linejoin="round"></path>
                                <path d="M100.272585,44.559 C100.272585,44.559 106.220585,50.788 113.839585,52.786" stroke="#8C8B8A" stroke-width="0.3" fill="none" stroke-linecap="round" stroke-linejoin="round"></path>
                            </g>
                        </g>
                    </g>
                </g>
                <g id="Group" transform="translate(138.792000, 103.238414)">
                    <g id="Fill_27-link" fill="#F6F5DB" fill-rule="nonzero">
                        <path d="M20.508,5.06450962 C20.508,5.06450962 24.005,-0.565490385 27.133,0.0465096154 C30.262,0.659509615 30.927,3.07350962 33.481,2.70450962 C36.035,2.33450962 38.481,1.26450962 40.051,3.05750962 C41.62,4.85050962 40.105,8.07150962 41.255,8.97650962 C42.406,9.88150962 48.072,10.8555096 47.366,13.6105096 C46.661,16.3655096 41.631,17.1505096 40.324,16.6815096 C39.017,16.2125096 38.96,20.0465096 35.818,20.6445096 C32.675,21.2425096 30.056,18.8245096 27.755,19.0735096 C22.087,19.6875096 20.444,15.2005096 19.747,13.1905096 C19.323,11.9695096 13.598,10.6475096 9.172,9.79750962 C6.314,9.24950962 0,6.38450962 0,6.38450962 C0,6.38450962 4.858,4.03750962 9.985,3.70750962 C15.112,3.37750962 20.508,5.06450962 20.508,5.06450962 Z" id="Fill_27"></path>
                    </g>
                    <g id="Clipped">
                        <mask id="mask-56" fill="white">
                            <use xlink:href="#path-55"></use>
                        </mask>
                        <g id="Fill_27"></g>
                        <g id="Group" mask="url(#mask-56)">
                            <g transform="translate(-0.709000, 4.233510)" id="Path">
                                <path d="M49.181,9.712 C49.181,9.712 42.791,11.157 40.1,10.169 C38.416,9.551 37.767,13.761 36.244,14.249 C33.775,15.041 31.66,12.426 29.627,12.937 C26.524,13.718 22.964,11.522 22.958,9.08 C22.947,5.073 15.175,4.091 11.117,3.609 C7.059,3.126 0,2.358 0,2.358 L27.848,17.263 L39.646,18.04 L49.181,9.712 Z" stroke="none" fill="#E9DFAA" fill-rule="evenodd"></path>
                                <path d="M19.938,0 C19.938,0 23.804,1.506 23.673,4.183" stroke="#8C8B8A" stroke-width="0.3" fill="none" stroke-linecap="round" stroke-linejoin="round"></path>
                            </g>
                        </g>
                    </g>
                </g>
                <g id="Group" transform="translate(129.588529, 125.437275)">
                    <g id="Fill_28-link" fill="#F6F5DB" fill-rule="nonzero">
                        <path d="M24.7384714,5.06464882 C24.7384714,5.06464882 28.2354714,-0.566351183 31.3644714,0.0466488172 C34.4924714,0.658648817 35.1584714,3.07364882 37.7124714,2.70364882 C40.2664714,2.33464882 42.2134714,1.87464882 44.2824714,3.05764882 C47.9014714,5.12664882 44.3364714,8.07064882 45.4864714,8.97564882 C46.6374714,9.88064882 50.7544714,11.7696488 50.0494714,14.5236488 C49.3444714,17.2786488 45.8624714,17.1506488 44.5554714,16.6816488 C43.2484714,16.2116488 43.1914714,20.0456488 40.0484714,20.6436488 C36.9064714,21.2416488 31.8024714,19.2836488 29.5004714,19.5326488 C23.8324714,20.1456488 22.8294714,14.4526488 22.1324714,12.4426488 C21.7084714,11.2216488 18.7724714,10.0756488 14.3454714,9.22664882 C11.4874714,8.67764882 0.217471418,6.20464882 0.00347141774,4.41864882 C-0.209528582,2.63264882 9.43547142,1.85964882 13.4914714,2.08264882 C17.5474714,2.30464882 24.7384714,5.06464882 24.7384714,5.06464882 Z" id="Fill_28"></path>
                    </g>
                    <g id="Clipped">
                        <mask id="mask-58" fill="white">
                            <use xlink:href="#path-57"></use>
                        </mask>
                        <g id="Fill_28"></g>
                        <g id="Group" mask="url(#mask-58)">
                            <g transform="translate(-1.416801, 4.056649)" id="Path">
                                <path d="M52.5652728,10.519 C52.5652728,10.519 48.5792728,11.58 45.6842728,10.703 C43.7332728,10.112 43.1062728,12.706 41.3862728,13.908 C39.6652728,15.111 35.4962728,12.508 35.4962728,12.508 C35.4962728,12.508 32.8722728,14.006 30.0022728,13.451 C26.5492728,12.783 25.1482728,6.204 25.1482728,6.204 C25.1482728,6.204 20.6942728,4.531 15.3522728,3.428 C9.36127277,2.191 2.30927277,1.454 0.243272772,0.279 C-2.09172723,-1.047 12.8302728,11.017 25.7892728,16.425 C34.5312728,20.073 43.6712728,19.797 43.6712728,19.797 L52.5652728,10.519 Z" stroke="none" fill="#E9DFAA" fill-rule="evenodd"></path>
                                <path d="M25.3502728,1.13686838e-13 C25.3502728,1.13686838e-13 27.0642728,1.937 26.9952728,3.418" stroke="#8C8B8A" stroke-width="0.3" fill="none" stroke-linecap="round" stroke-linejoin="round"></path>
                            </g>
                        </g>
                    </g>
                </g>
                <g id="Group" transform="translate(129.985788, 151.040590)">
                    <g id="Fill_29-link" fill="#F6F5DB" fill-rule="nonzero">
                        <path d="M40.4002125,7.55033449 C40.4002125,7.55033449 47.7272125,5.97033449 48.4222125,8.10233449 C49.1172125,10.2343345 44.9562125,12.9193345 42.8052125,13.2213345 C40.6532125,13.5243345 41.3002125,17.0763345 38.2502125,18.3283345 C35.2002125,19.5813345 32.2412125,16.2603345 30.7822125,17.8283345 C29.3232125,19.3963345 28.9042125,22.0953345 26.2152125,21.8723345 C23.5262125,21.6493345 22.0932125,18.1363345 19.2272125,18.3163345 C16.3612125,18.4953345 2.82521247,19.5533345 0.355212474,18.1773345 C-2.11378753,16.8023345 8.90721247,11.8513345 14.2982125,10.9563345 C19.6892125,10.0623345 20.7292125,8.79033449 21.8152125,5.23133449 C22.9012125,1.67333449 26.4892125,0.946334488 28.8402125,1.50033449 C31.1902125,2.05433449 33.6742125,-0.550665512 36.3722125,0.107334488 C41.7542125,1.41833449 40.4002125,7.55033449 40.4002125,7.55033449 Z" id="Fill_29"></path>
                    </g>
                    <g id="Clipped">
                        <mask id="mask-60" fill="white">
                            <use xlink:href="#path-59"></use>
                        </mask>
                        <g id="Fill_29"></g>
                        <g id="Group" mask="url(#mask-60)">
                            <g transform="translate(-2.607556, 7.816334)" id="Path">
                                <path d="M52.9847684,0 C52.9847684,0 47.0017684,4.069 44.2807684,4.171 C41.5597684,4.272 41.8087684,7.078 40.3537684,8.366 C38.8987684,9.653 35.6227684,7.58 33.7357684,7.808 C31.8487684,8.037 31.2817684,11.061 29.4157684,11.559 C27.5497684,12.057 24.3437684,8.84 21.8657684,8.727 C19.3877684,8.614 2.7967684,10.468 0.205768401,10.31 C-0.856231599,10.245 2.2407684,12.261 8.3817684,13.213 C17.2137684,14.582 30.4247684,15.062 30.4247684,15.062 L43.6057684,11.47 L52.9847684,0 Z" stroke="none" fill="#E9DFAA" fill-rule="evenodd"></path>
                                <path d="M24.1697684,12.098 C24.1697684,12.098 22.7247684,10.176 22.5987684,7.957" stroke="#8C8B8A" stroke-width="0.3" fill="none" stroke-linecap="round" stroke-linejoin="round"></path>
                            </g>
                        </g>
                    </g>
                </g>
                <g id="Group" transform="translate(79.080234, 165.336904)">
                    <g id="Fill_30-link" transform="translate(-0.000000, 0.000000)" fill="#F6F5DB" fill-rule="nonzero">
                        <path d="M92.9877659,9.78102043 C92.9877659,9.78102043 102.310766,4.95602043 103.516766,7.88502043 C104.721766,10.8140204 101.186766,12.7070204 98.0877659,14.1940204 C94.9897659,15.6800204 97.9737659,15.1790204 94.0547659,19.6190204 C90.1347659,24.0590204 84.2767659,26.4690204 80.9167659,24.7330204 C77.5567659,22.9960204 75.5527659,25.1990204 72.1447659,27.6870204 C68.5237659,30.3310204 55.1287659,38.1280204 47.3707659,40.8310204 C43.8807659,42.0470204 37.3377659,44.4130204 30.8417659,44.9600204 C22.8977659,45.6290204 14.9577659,43.9150204 14.9577659,43.9150204 C14.9577659,43.9150204 40.3757659,36.2720204 51.6397659,29.1310204 C55.0487659,26.9690204 55.3927659,23.5360204 55.3927659,23.5360204 C55.3927659,23.5360204 50.6407659,19.9680204 42.6477659,18.2200204 C36.9897659,16.9820204 29.3167659,17.4710204 27.6927659,19.1130204 C23.7737659,23.0750204 20.2957659,32.6660204 14.2497659,29.9820204 C8.20376595,27.2990204 7.69576595,19.7130204 7.69576595,19.7130204 C7.69576595,19.7130204 0.0797659484,13.1150204 0,9.42802043 C-0.0772340516,5.74102043 5.81576595,-0.38497957 11.4147659,0.01902043 C17.0147659,0.42202043 22.1857659,5.35602043 26.1497659,7.36102043 C30.1147659,9.36602043 36.5767659,9.05702043 43.5677659,10.4900204 C46.7807659,11.1480204 50.7727659,13.9550204 56.5767659,14.2660204 C60.4887659,14.4750204 62.2267659,10.7930204 66.8047659,10.2270204 C71.3817659,9.66102043 77.6077659,10.1300204 78.8187659,9.95402043 C84.0687659,9.18902043 81.8907659,8.24602043 86.3067659,7.67302043 C90.7227659,7.10002043 92.9877659,9.78102043 92.9877659,9.78102043 Z" id="Fill_30"></path>
                    </g>
                    <g id="Clipped" transform="translate(-0.000000, 0.000000)">
                        <mask id="mask-62" fill="white">
                            <use xlink:href="#path-61"></use>
                        </mask>
                        <g id="Fill_30"></g>
                        <g id="Group" mask="url(#mask-62)">
                            <g transform="translate(-3.033234, 4.209020)" id="Path">
                                <path d="M56.865,18.606 C56.865,18.606 65.29,23.177 68.133,23.805 C72.476,24.765 78.268,21.281 78.268,21.281 C78.268,21.281 71.228,22.625 67.861,21.443 C62.655,19.615 53.094,13.901 53.094,13.901 L56.865,18.606 Z" stroke="none" fill="#E9DFAA" fill-rule="evenodd"></path>
                                <path d="M3.003,0 C3.003,0 7.328,9.55 13.602,10.299 C19.877,11.048 25.202,10.61 27.993,10.807 C30.785,11.005 40.886,12.353 43.893,13.149 C46.9,13.945 50.752,16.098 50.752,16.098 L33.93,16.895 C33.93,16.895 20.877,30.046 20.223,30.0881244 C19.568,30.129 9.505,20.019 9.505,20.019 L-5.68434189e-14,5.009 L3.003,0 Z" stroke="none" fill="#E9DFAA" fill-rule="evenodd"></path>
                                <path d="M73.887,22.067 C73.887,22.067 50.84,34.798 43.41,37.19 C36.694,39.352 15.52,40.123 15.52,40.123 L44.598,43.41 L73.657,27.326 L80.935,21.002 L73.887,22.067 Z" stroke="none" fill="#E9DFAA" fill-rule="evenodd"></path>
                                <path d="M98.412,14.017 C98.412,14.017 95.888,16.912 93.267,17.07 C91.087,17.201 91.139,18.085 89.658,19.193 C88.177,20.301 82.369,19.944 82.369,19.944 L84.281,22.024 L92.246,20.933 L95.7,18.305 L98.412,14.017 Z" stroke="none" fill="#E9DFAA" fill-rule="evenodd"></path>
                                <path d="M56.233,18.046 C56.233,18.046 64.981,23.538 68.741,23.844 C72.011,24.11 74.931,22.974 76.188,22.252 C77.456,21.524 78.974,21.168 80.399,19.534 C81.824,17.9 81.937,17.301 82.533,15.337 C83.233,13.026 83.352,10.247 81.161,8.107" stroke="#8C8B8A" stroke-width="0.3" fill="none" stroke-linecap="round" stroke-linejoin="round"></path>
                                <path d="M82.573,15.438 C82.573,15.438 90.331,15.494 93.324,11.646" stroke="#8C8B8A" stroke-width="0.3" fill="none" stroke-linecap="round" stroke-linejoin="round"></path>
                                <path d="M31.602,2.216 C31.602,2.216 25.259,2.972 22.885,5.571" stroke="#8C8B8A" stroke-width="0.3" fill="none" stroke-linecap="round" stroke-linejoin="round"></path>
                            </g>
                        </g>
                    </g>
                </g>
                <g id="Group" transform="translate(95.281000, 202.947984)">
                    <g id="Fill_31-link" fill="#F6F5DB" fill-rule="nonzero">
                        <path d="M106.406,7.50393968 C106.406,7.50393968 110.875,5.96193968 111.188,3.86793968 C111.5,1.77293968 109.705,-0.204060322 107.059,0.0169396779 C104.709,0.213939678 102.094,2.79793968 102.094,2.79793968 C102.094,2.79793968 99.684,-0.00106032208 97.518,0.466939678 C95.352,0.935939678 94.875,4.05593968 93.788,5.82093968 C92.701,7.58493968 88.429,7.02693968 86.781,8.88893968 C85.134,10.7499397 84.933,14.5299397 84.575,15.8719397 C84.217,17.2149397 73.835,25.8719397 70.78,27.8509397 C67.724,29.8299397 61.932,34.0359397 56.353,36.3789397 C50.773,38.7219397 37.469,43.7269397 31.117,44.3289397 C24.764,44.9299397 -1.13686838e-13,44.4769397 -1.13686838e-13,44.4769397 C-1.13686838e-13,44.4769397 2.589,48.9869397 8.714,50.2929397 C15.323,51.7019397 28.121,52.0109397 33.816,50.9059397 C39.317,49.8399397 54.439,46.5199397 62.207,41.7349397 C66.447,39.1219397 74.542,34.2249397 80.788,30.0399397 C85.984,26.5589397 90.471,21.7339397 90.471,21.7339397 C90.471,21.7339397 94.669,24.7119397 96.479,23.3449397 C98.29,21.9779397 99.556,19.7699397 100.346,18.7119397 C101.135,17.6539397 104.26,18.5799397 106.975,15.4639397 C109.689,12.3479397 106.406,7.50393968 106.406,7.50393968 Z" id="Fill_31"></path>
                    </g>
                    <g id="Clipped">
                        <mask id="mask-64" fill="white">
                            <use xlink:href="#path-63"></use>
                        </mask>
                        <g id="Fill_31"></g>
                        <g id="Group" mask="url(#mask-64)">
                            <g transform="translate(-3.989000, 1.071940)" id="Path">
                                <path d="M115.59,0 C115.59,0 114.119,2.337 112.522,3.776 C110.925,5.215 109.203,5.757 109.203,5.757 L113.706,8.434 L118.697,3.198 L115.59,0 Z" stroke="none" fill="#E9DFAA" fill-rule="evenodd"></path>
                                <path d="M112.035,9.582 C112.035,9.582 110.488,13.735 108.194,14.381 C105.899,15.026 104.233,14.892 103.392,15.809 C102.55,16.725 101.088,19.018 98.755,19.839 C97.244,20.37 93.701,16.537 93.701,16.537 C93.701,16.537 84.842,27.116 80.122,29.845 C77.721,31.233 69.676,37.517 61.237,41.061 C52.447,44.754 46.506,46.418 41.942,46.909 C32.651,47.908 17.5,49.508 10.661,46.826 C7.919,45.75 0,41.706 0,41.706 L14.138,54.253 L23.91,57.733 L69.373,46.152 L106.638,20.045 L115.028,11.197 L112.035,9.582 Z" stroke="none" fill="#E9DFAA" fill-rule="evenodd"></path>
                                <path d="M98.844,6.163 C98.844,6.163 98.598,8.25 95.95,8.514" stroke="#8C8B8A" stroke-width="0.3" fill="none" stroke-linecap="round" stroke-linejoin="round"></path>
                            </g>
                        </g>
                    </g>
                </g>
            </g>
        </g>
    </g>
</svg>